<?xml version="1.0" encoding="UTF-8" standalone="no"?>
<svg
   version="1.0"
   width="512.000000pt"
   height="512.000000pt"
   viewBox="0 0 512.000000 512.000000"
   preserveAspectRatio="xMidYMid meet"
   id="svg5486"
   sodipodi:docname="cupcakeicon.svg"
   inkscape:version="1.2 (dc2aedaf03, 2022-05-15)"
   xmlns:inkscape="http://www.inkscape.org/namespaces/inkscape"
   xmlns:sodipodi="http://sodipodi.sourceforge.net/DTD/sodipodi-0.dtd"
   xmlns="http://www.w3.org/2000/svg"
   xmlns:svg="http://www.w3.org/2000/svg">
  <defs
     id="defs5490" />
  <sodipodi:namedview
     id="namedview5488"
     pagecolor="#ffffff"
     bordercolor="#cccccc"
     borderopacity="1"
     inkscape:showpageshadow="0"
     inkscape:pageopacity="1"
     inkscape:pagecheckerboard="0"
     inkscape:deskcolor="#d1d1d1"
     inkscape:document-units="pt"
     showgrid="false"
     inkscape:zoom="0.5437955"
     inkscape:cx="279.51684"
     inkscape:cy="308.93967"
     inkscape:window-width="1360"
     inkscape:window-height="705"
     inkscape:window-x="-8"
     inkscape:window-y="-8"
     inkscape:window-maximized="1"
     inkscape:current-layer="g5484" />
  <g
     transform="translate(0.000000,512.000000) scale(0.100000,-0.100000)"
     fill="#000000"
     stroke="none"
     id="g5484">
    <path
       d="M2750 5098 c-74 -40 -87 -74 -92 -241 -6 -180 -27 -229 -123 -280 -38 -21 -58 -22 -345 -27 -300 -6 -306 -6 -385 -34 -273 -94 -456 -330 -483 -622 l-7 -75 -75 -32 c-195 -85 -339 -226 -429 -418 -49 -106 -71 -189 -78 -302 -6 -83 -8 -89 -31 -98 -55 -21 -164 -103 -230 -174 -231 -247 -263 -619 -77 -906 101 -157 271 -279 443 -319 28 -6 52 -13 52 -15 0 -1 50 -330 110 -731 116 -770 113 -753 174 -798 27 -21 29 -21 1386 -21 l1359 0 28 21 c15 12 36 34 45 51 13 21 50 245 128 753 60 398 110 725 110 726 0 1 24 7 53 14 75 18 202 80 274 134 149 113 256 299 283 492 33 240 -65 499 -251 662 -46 40 -158 111 -186 118 -20 5 -23 12 -23 54 0 114 -37 256 -100 380 -83 165 -280 338 -441 389 l-37 12 -4 247 c-5 270 -14 321 -78 475 -137 329 -468 562 -830 583 -87 6 -99 4 -140 -18z m390 -356 c95 -47 221 -168 273 -262 69 -126 80 -180 85 -417 l4 -213 -942 0 -943 0 7 53 c17 127 103 244 224 304 l76 38 305 6 c199 4 320 10 346 19 85 26 175 82 235 147 89 95 130 190 145 335 l6 57 52 -15 c29 -8 86 -31 127 -52z m585 -1219 c125 -48 230 -140 290 -255 32 -60 64 -171 65 -220 0 -17 -79 -18 -1525 -18 l-1525 0 0 23 c0 48 32 153 65 216 53 100 155 197 253 238 99 42 80 41 1222 40 l1095 -2 60 -22z m570 -827 c33 -16 85 -55 116 -86 224 -223 159 -587 -129 -723 -63 -30 -74 -32 -182 -32 -114 0 -116 0 -205 42 -127 59 -194 76 -300 76 -110 0 -191 -20 -310 -76 -89 -42 -91 -42 -205 -42 -105 0 -121 3 -180 29 -158 69 -192 78 -297 84 -127 6 -200 -8 -312 -58 -112 -50 -151 -60 -236 -60 -86 0 -125 10 -237 61 -108 49 -227 74 -323 65 -89 -7 -158 -27 -270 -79 -89 -42 -91 -42 -205 -42 -108 0 -119 2 -180 31 -184 87 -292 285 -260 475 21 126 94 240 195 304 108 69 -36 64 1800 62 l1660 -2 60 -29z m-2686 -1027 l50 -10 6 -62 c9 -95 85 -1219 85 -1260 l0 -37 -185 0 c-119 0 -185 4 -185 10 0 13 -178 1197 -186 1231 -4 23 -1 27 27 33 18 3 73 25 123 48 130 60 172 67 265 47z m2081 -12 c19 -5 66 -25 105 -44 38 -18 84 -36 103 -39 24 -5 33 -11 29 -23 -2 -9 -46 -294 -97 -633 l-94 -618 -184 0 -184 0 6 63 c3 34 22 323 41 642 20 319 38 594 41 612 4 27 11 34 42 43 72 19 122 19 192 -3z m-772 -92 c37 -8 104 -15 150 -15 45 0 82 -2 82 -4 0 -2 -18 -282 -40 -622 -22 -341 -40 -620 -40 -621 0 -2 -81 -3 -180 -3 l-180 0 0 669 0 669 71 -30 c39 -16 100 -36 137 -43z m-508 -600 l0 -665 -177 2 -178 3 -36 530 c-20 292 -40 572 -43 623 l-7 92 88 0 c102 0 194 18 278 53 33 14 63 26 68 26 4 1 7 -298 7 -664z"
       id="path5482"
       style="stroke:#dc143c;stroke-opacity:1;fill:#dc143c;fill-opacity:1" />
  </g>
</svg>
