<?xml version="1.0" encoding="UTF-8" standalone="no"?>
<svg
   version="1.1"
   width="312.89499"
   height="283.10782"
   viewBox="0 0 312.89499 283.10782"
   xml:space="preserve"
   id="svg32"
   sodipodi:docname="delivery2.svg"
   inkscape:version="1.2 (dc2aedaf03, 2022-05-15)"
   xmlns:inkscape="http://www.inkscape.org/namespaces/inkscape"
   xmlns:sodipodi="http://sodipodi.sourceforge.net/DTD/sodipodi-0.dtd"
   xmlns="http://www.w3.org/2000/svg"
   xmlns:svg="http://www.w3.org/2000/svg"><sodipodi:namedview
   id="namedview34"
   pagecolor="#ffffff"
   bordercolor="#cccccc"
   borderopacity="1"
   inkscape:showpageshadow="0"
   inkscape:pageopacity="1"
   inkscape:pagecheckerboard="0"
   inkscape:deskcolor="#d1d1d1"
   showgrid="false"
   inkscape:zoom="1.4501213"
   inkscape:cx="61.374175"
   inkscape:cy="128.95473"
   inkscape:window-width="1360"
   inkscape:window-height="705"
   inkscape:window-x="-8"
   inkscape:window-y="-8"
   inkscape:window-maximized="1"
   inkscape:current-layer="svg32" />

<defs
   id="defs2">
</defs>
<g
   id="g3983"
   transform="translate(-1.4065934,-12.94056)"><g
     style="opacity:1;fill:none;fill-rule:nonzero;stroke:none;stroke-width:0;stroke-linecap:butt;stroke-linejoin:miter;stroke-miterlimit:10;stroke-dasharray:none"
     transform="matrix(3.4766109,0,0,3.4766109,1.4065934,-1.2505176)"
     id="g30">
	<path
   d="M 31.089,54.409 H 5.307 C 2.38,54.409 0,52.028 0,49.103 V 34.646 C 0,31.72 2.38,29.339 5.307,29.339 h 20.476 c 2.926,0 5.306,2.38 5.306,5.307 V 54.409 Z M 5.307,31.34 C 3.483,31.34 2,32.823 2,34.646 v 14.456 c 0,1.823 1.483,3.307 3.307,3.307 H 29.089 V 34.646 c 0,-1.823 -1.483,-3.307 -3.306,-3.307 H 5.307 Z"
   style="opacity:1;fill:#dc143c;fill-opacity:1;fill-rule:nonzero;stroke:none;stroke-width:0.808258;stroke-linecap:butt;stroke-linejoin:miter;stroke-miterlimit:10;stroke-dasharray:none"
   stroke-linecap="round"
   id="path4" />
	<path
   d="m 74.437,46.838 h -0.704 c -3.415,0 -6.193,-2.778 -6.193,-6.194 0,-3.416 2.778,-6.194 6.193,-6.194 h 0.704 c 1.408,0 2.554,1.146 2.554,2.554 v 7.28 c -0.001,1.408 -1.146,2.554 -2.554,2.554 z M 73.732,36.45 c -2.313,0 -4.193,1.881 -4.193,4.194 0,2.313 1.881,4.194 4.193,4.194 h 0.704 c 0.306,0 0.554,-0.249 0.554,-0.554 v -7.28 c 0,-0.305 -0.248,-0.554 -0.554,-0.554 z"
   style="opacity:1;fill:#dc143c;fill-opacity:1;fill-rule:nonzero;stroke:none;stroke-width:0.808258;stroke-linecap:butt;stroke-linejoin:miter;stroke-miterlimit:10;stroke-dasharray:none"
   stroke-linecap="round"
   id="path6" />
	<path
   d="m 67.673,77.57 c -0.034,0 -0.069,-0.002 -0.104,-0.006 -0.371,-0.038 -0.688,-0.279 -0.826,-0.625 -1.19,-3.001 -1.156,-6.289 0.095,-9.258 2.619,-6.214 9.804,-9.14 16.023,-6.521 3.293,1.389 5.807,4.145 6.896,7.562 0.112,0.354 0.02,0.743 -0.243,1.008 -0.262,0.265 -0.649,0.361 -1.006,0.251 -7.456,-2.305 -15.683,0.63 -20.003,7.143 -0.186,0.28 -0.499,0.446 -0.832,0.446 z M 78.111,62.194 c -1.307,0 -2.612,0.254 -3.858,0.761 -2.531,1.03 -4.51,2.985 -5.571,5.504 -0.797,1.889 -1.003,3.933 -0.618,5.908 4.595,-5.553 11.972,-8.188 19.04,-6.801 -1.098,-2.035 -2.858,-3.652 -5.02,-4.563 -1.278,-0.538 -2.626,-0.809 -3.973,-0.809 z"
   style="opacity:1;fill:#dc143c;fill-opacity:1;fill-rule:nonzero;stroke:none;stroke-width:0.808258;stroke-linecap:butt;stroke-linejoin:miter;stroke-miterlimit:10;stroke-dasharray:none"
   stroke-linecap="round"
   id="path8" />
	<path
   d="m 49.325,26.576 c -6.096,0 -12.057,-8.042 -12.057,-14.045 0,-5.188 4.282,-8.045 12.057,-8.045 6.091,0 11.046,4.955 11.046,11.045 0,6.09 -4.955,11.045 -11.046,11.045 z m 0,-20.09 c -4.588,0 -10.057,1.049 -10.057,6.045 0,5.037 5.068,12.045 10.057,12.045 4.988,0 9.046,-4.058 9.046,-9.045 0,-4.988 -4.058,-9.045 -9.046,-9.045 z"
   style="opacity:1;fill:#dc143c;fill-opacity:1;fill-rule:nonzero;stroke:#dc143c;stroke-width:0.808258;stroke-linecap:butt;stroke-linejoin:miter;stroke-miterlimit:10;stroke-dasharray:none;stroke-opacity:1"
   stroke-linecap="round"
   id="path10" />
	<path
   d="m 50.434,26.555 -2.396,-8.168 c -0.327,-1.119 -0.043,-2.291 0.761,-3.135 0.804,-0.844 1.96,-1.188 3.093,-0.913 l 8.484,2.036 -0.146,0.915 c -0.738,4.607 -4.319,8.266 -8.91,9.104 z m 0.688,-10.308 c -0.452,0 -0.753,0.257 -0.875,0.384 -0.146,0.154 -0.469,0.58 -0.289,1.194 l 1.875,6.396 c 3.04,-0.874 5.412,-3.291 6.229,-6.345 l -6.638,-1.593 c -0.107,-0.025 -0.207,-0.036 -0.302,-0.036 z"
   style="opacity:1;fill:#dc143c;fill-opacity:1;fill-rule:nonzero;stroke:none;stroke-width:0.808258;stroke-linecap:butt;stroke-linejoin:miter;stroke-miterlimit:10;stroke-dasharray:none"
   stroke-linecap="round"
   id="path12" />
	<path
   d="m 65.278,40.124 c -0.259,0 -0.52,-0.056 -0.764,-0.169 C 63.456,39.466 62.19,39.184 60.641,39.092 60.112,39.061 59.7,38.623 59.7,38.094 V 33.59 c 0,-0.552 0.447,-1 1,-1 h 2.694 c 2.023,0 3.669,1.646 3.669,3.669 v 2.085 c 0,0.609 -0.306,1.169 -0.817,1.497 -0.295,0.188 -0.63,0.283 -0.968,0.283 z M 61.7,37.176 c 1.269,0.143 2.378,0.419 3.363,0.835 v -1.752 c 0,-0.92 -0.749,-1.669 -1.669,-1.669 H 61.7 Z"
   style="opacity:1;fill:#dc143c;fill-opacity:1;fill-rule:nonzero;stroke:none;stroke-width:0.808258;stroke-linecap:butt;stroke-linejoin:miter;stroke-miterlimit:10;stroke-dasharray:none"
   stroke-linecap="round"
   id="path14" />
	<path
   d="m 44.373,47.136 c -0.15,0 -0.3,-0.033 -0.439,-0.102 C 42.68,46.422 41.33,46.111 39.92,46.111 h -9.832 c -0.552,0 -1,-0.448 -1,-1 v -5.647 c 0,-8.526 6.936,-15.473 15.462,-15.487 4.764,0 8.706,3.802 9.997,7.38 0.267,0.738 0.961,1.233 1.728,1.233 H 60.7 c 0.553,0 1,0.448 1,1 v 4.776 c 0,2.04 -1.659,3.699 -3.699,3.699 h -5.846 c -1.359,0 -2.638,-0.348 -3.753,-0.96 -2.042,1.72 -3.061,3.403 -3.029,5.011 0.006,0.349 -0.168,0.675 -0.462,0.862 -0.163,0.105 -0.35,0.158 -0.538,0.158 z M 31.089,44.111 h 8.832 c 1.245,0 2.453,0.199 3.608,0.594 0.38,-1.632 1.458,-3.243 3.221,-4.813 -1.49,-1.425 -2.419,-3.433 -2.419,-5.652 0,-0.552 0.448,-1 1,-1 0.552,0 1,0.448 1,1 0,3.212 2.613,5.825 5.825,5.825 h 5.846 c 0.937,0 1.699,-0.762 1.699,-1.699 V 34.59 h -3.425 c -1.606,0 -3.057,-1.026 -3.608,-2.555 C 51.76,29.519 48.642,25.976 44.553,25.976 37.13,25.988 31.09,32.039 31.09,39.463 v 4.648 z"
   style="opacity:1;fill:#dc143c;fill-opacity:1;fill-rule:nonzero;stroke:none;stroke-width:0.808258;stroke-linecap:butt;stroke-linejoin:miter;stroke-miterlimit:10;stroke-dasharray:none"
   stroke-linecap="round"
   id="path16" />
	<path
   d="m 50.094,66.862 h -5.656 c -2.469,0 -4.478,-2.009 -4.478,-4.478 V 59.06 c 0,-2.564 -2.086,-4.65 -4.65,-4.65 h -5.221 c -0.552,0 -1,-0.447 -1,-1 v -8.298 c 0,-0.552 0.448,-1 1,-1 h 9.832 c 6.161,0 11.173,5.012 11.173,11.173 v 10.578 c 0,0.552 -0.448,0.999 -1,0.999 z M 31.089,52.409 h 4.221 c 3.667,0 6.65,2.983 6.65,6.65 v 3.325 c 0,1.366 1.111,2.478 2.478,2.478 h 4.656 v -9.578 c 0,-5.058 -4.115,-9.173 -9.173,-9.173 h -8.832 z"
   style="opacity:1;fill:#dc143c;fill-opacity:1;fill-rule:nonzero;stroke:none;stroke-width:0.808258;stroke-linecap:butt;stroke-linejoin:miter;stroke-miterlimit:10;stroke-dasharray:none"
   stroke-linecap="round"
   id="path18" />
	<path
   d="m 29.102,80.498 c -3.357,0 -6.088,-2.731 -6.088,-6.088 0,-0.443 0.057,-0.9 0.174,-1.397 l 1.946,0.459 c -0.081,0.345 -0.121,0.651 -0.121,0.938 0,2.254 1.834,4.088 4.088,4.088 2.254,0 4.089,-1.834 4.089,-4.088 0,-0.289 -0.039,-0.588 -0.121,-0.939 l 1.947,-0.457 c 0.117,0.499 0.174,0.956 0.174,1.396 0.001,3.357 -2.731,6.088 -6.088,6.088 z"
   style="opacity:1;fill:#dc143c;fill-opacity:1;fill-rule:nonzero;stroke:none;stroke-width:0.808258;stroke-linecap:butt;stroke-linejoin:miter;stroke-miterlimit:10;stroke-dasharray:none"
   stroke-linecap="round"
   id="path20" />
	<path
   d="m 29.102,85.514 c -6.123,0 -11.104,-4.981 -11.104,-11.104 0,-0.396 0.026,-0.816 0.079,-1.281 l 1.987,0.227 c -0.04,0.347 -0.066,0.697 -0.066,1.055 0,5.02 4.084,9.104 9.104,9.104 5.02,0 9.104,-4.084 9.104,-9.104 0,-0.324 -0.021,-0.669 -0.066,-1.053 l 1.986,-0.23 c 0.054,0.462 0.08,0.881 0.08,1.283 0,6.121 -4.981,11.103 -11.104,11.103 z"
   style="opacity:1;fill:#dc143c;fill-opacity:1;fill-rule:nonzero;stroke:none;stroke-width:0.808258;stroke-linecap:butt;stroke-linejoin:miter;stroke-miterlimit:10;stroke-dasharray:none"
   stroke-linecap="round"
   id="path22" />
	<path
   d="m 78.896,85.514 c -5.849,0 -10.712,-4.576 -11.071,-10.417 l 1.996,-0.123 c 0.295,4.789 4.281,8.54 9.075,8.54 5.02,0 9.104,-4.084 9.104,-9.104 0,-1.88 -0.575,-3.689 -1.662,-5.232 l 1.635,-1.152 C 89.299,69.907 90,72.115 90,74.41 90,80.532 85.019,85.514 78.896,85.514 Z"
   style="opacity:1;fill:#dc143c;fill-opacity:1;fill-rule:nonzero;stroke:none;stroke-width:0.808258;stroke-linecap:butt;stroke-linejoin:miter;stroke-miterlimit:10;stroke-dasharray:none"
   stroke-linecap="round"
   id="path24" />
	<path
   d="m 78.896,80.498 c -3.357,0 -6.089,-2.731 -6.089,-6.088 0,-3.357 2.731,-6.089 6.089,-6.089 3.356,0 6.088,2.731 6.088,6.089 0,3.357 -2.731,6.088 -6.088,6.088 z m 0,-10.177 c -2.255,0 -4.089,1.834 -4.089,4.089 0,2.254 1.834,4.088 4.089,4.088 2.254,0 4.088,-1.834 4.088,-4.088 0,-2.255 -1.834,-4.089 -4.088,-4.089 z"
   style="opacity:1;fill:#dc143c;fill-opacity:1;fill-rule:nonzero;stroke:none;stroke-width:0.808258;stroke-linecap:butt;stroke-linejoin:miter;stroke-miterlimit:10;stroke-dasharray:none"
   stroke-linecap="round"
   id="path26" />
	<path
   d="M 67.993,74.242 H 15.217 c -1.396,0 -2.706,-0.685 -3.503,-1.831 -0.796,-1.147 -0.981,-2.612 -0.494,-3.921 l 2.525,-6.785 c 2.068,-5.561 7.444,-9.296 13.377,-9.296 h 8.188 c 3.667,0 6.65,2.983 6.65,6.65 v 3.325 c 0,1.366 1.111,2.478 2.478,2.478 h 16.231 c 0.845,0 1.636,-0.374 2.172,-1.026 0.545,-0.664 0.755,-1.525 0.577,-2.365 l -4.451,-21.031 1.957,-0.414 4.451,21.031 c 0.305,1.437 -0.056,2.912 -0.989,4.049 -0.917,1.116 -2.271,1.757 -3.717,1.757 H 44.438 c -2.469,0 -4.478,-2.009 -4.478,-4.478 V 59.06 c 0,-2.564 -2.086,-4.65 -4.65,-4.65 h -8.188 c -5.102,0 -9.724,3.212 -11.503,7.993 l -2.525,6.785 c -0.262,0.705 -0.167,1.464 0.263,2.082 0.43,0.618 1.107,0.973 1.86,0.973 h 50.668 c 0.019,-1.572 0.338,-3.102 0.954,-4.561 1.87,-4.438 6.189,-7.322 10.903,-7.468 l -12.548,-22.006 1.738,-0.99 14.437,25.32 -1.984,-0.25 c -4.533,-0.569 -8.932,1.967 -10.703,6.171 -0.631,1.494 -0.89,3.079 -0.769,4.709 z"
   style="opacity:1;fill:#dc143c;fill-opacity:1;fill-rule:nonzero;stroke:none;stroke-width:0.808258;stroke-linecap:butt;stroke-linejoin:miter;stroke-miterlimit:10;stroke-dasharray:none"
   stroke-linecap="round"
   id="path28" />
</g></g>
<path
   style="fill:#dc143c;fill-opacity:1;fill-rule:evenodd;stroke:#dc143c;stroke-width:1.00157;stroke-opacity:1;paint-order:stroke fill markers"
   d="m 152.1182,76.094118 c -21.79822,0.614972 -40.92755,18.834051 -43.74904,40.259292 -1.01506,7.32339 -0.61331,14.74105 -0.70171,22.10887 4.50737,1.48484 10.13608,0.37104 15.06613,0.87636 9.36716,0.35669 19.01933,-0.0516 28.0997,1.7258 3.4593,-5.60764 6.54366,-11.6059 11.48072,-16.17726 -1.61483,-3.55979 -4.87685,-6.75863 -6.00569,-10.8221 -0.99544,-3.50648 -3.06106,-7.98687 -0.86065,-11.32853 2.93543,-2.58341 6.11117,1.40039 5.38479,4.41504 1.40747,9.90458 10.513,18.86497 20.91502,17.95372 7.28369,0.13356 14.6371,0.47881 21.88043,0.26809 3.40169,-1.80443 4.70336,-5.36784 4.34769,-9.0348 -0.28184,-3.50411 1.08714,-7.6535 -0.28284,-10.73995 -7.2205,-0.6194 -16.72485,1.9786 -21.86913,-4.73425 -3.31714,-5.211104 -5.68869,-11.051482 -10.39636,-15.304262 -5.55204,-6.970365 -14.69063,-9.630445 -23.30906,-9.46602 z"
   id="path3987" /><path
   style="fill:#dc143c;fill-opacity:1;fill-rule:evenodd;stroke:#dc143c;stroke-width:1.00157;stroke-opacity:1;paint-order:stroke fill markers"
   d="m 216.07298,122.20691 c -4.56891,0.49537 -3.82566,6.45923 -2.96985,9.58163 4.30209,23.58826 10.48971,46.86772 13.85525,70.60428 0.006,8.50564 -8.16135,16.26357 -16.78659,15.11724 -19.94218,0.0537 -40.0416,0.61223 -59.89476,-0.33669 -6.71911,-1.3595 -11.30093,-8.42616 -10.82211,-15.15229 -0.79912,-7.41889 1.20579,-16.36602 -4.93223,-22.06173 -3.34713,-3.43983 -7.72391,-6.09627 -12.70368,-5.05615 -12.02628,0.18146 -24.168444,-0.35867 -36.124027,0.26352 -14.088073,3.83651 -26.961503,13.7864 -31.697345,27.94544 -3.226447,8.77782 -7.447745,17.45413 -9.035075,26.68811 0.09344,4.18314 3.848341,7.5987 8.071364,6.80027 55.353303,0.95188 110.725073,0.31229 166.085673,0.52807 3.07013,-1.01542 10.0209,2.2266 10.43278,-1.97316 0.57164,-14.59408 9.84675,-28.58618 22.95779,-34.94208 5.23199,-3.14247 11.33106,-3.81105 17.12514,-5.08826 1.2358,-1.96926 -2.20323,-4.30667 -2.61325,-6.33653 -11.96117,-20.669 -23.20483,-41.77859 -35.84393,-62.04003 -1.51389,-3.33558 -5.41233,-1.35059 -8.02466,-2.8392 -2.3114,-0.6977 -4.62238,-1.74579 -7.08049,-1.70244 z"
   id="path4008" /></svg>
