<?xml version="1.0" encoding="UTF-8" standalone="no"?>
<svg
   version="1.0"
   width="512.000000pt"
   height="512.000000pt"
   viewBox="0 0 512.000000 512.000000"
   preserveAspectRatio="xMidYMid meet"
   id="svg18"
   sodipodi:docname="delivery.svg"
   inkscape:version="1.2 (dc2aedaf03, 2022-05-15)"
   xmlns:inkscape="http://www.inkscape.org/namespaces/inkscape"
   xmlns:sodipodi="http://sodipodi.sourceforge.net/DTD/sodipodi-0.dtd"
   xmlns="http://www.w3.org/2000/svg"
   xmlns:svg="http://www.w3.org/2000/svg">
  <defs
     id="defs22" />
  <sodipodi:namedview
     id="namedview20"
     pagecolor="#ffffff"
     bordercolor="#cccccc"
     borderopacity="1"
     inkscape:showpageshadow="0"
     inkscape:pageopacity="1"
     inkscape:pagecheckerboard="0"
     inkscape:deskcolor="#d1d1d1"
     inkscape:document-units="pt"
     showgrid="false"
     inkscape:zoom="2.175182"
     inkscape:cx="252.39267"
     inkscape:cy="180.21481"
     inkscape:window-width="1360"
     inkscape:window-height="705"
     inkscape:window-x="-8"
     inkscape:window-y="-8"
     inkscape:window-maximized="1"
     inkscape:current-layer="svg18" />
  <g
     transform="translate(0.000000,512.000000) scale(0.100000,-0.100000)"
     fill="#000000"
     stroke="none"
     id="g16">
    <path
       d="M2395 4751 c-92 -17 -182 -82 -221 -159 -10 -20 -25 -44 -32 -53 -7 -9 -14 -45 -16 -80 -3 -35 -8 -108 -12 -162 l-7 -97 43 -39 c24 -22 48 -37 54 -35 6 2 29 -7 51 -20 32 -20 36 -26 23 -31 -9 -4 -28 1 -43 11 -32 21 -39 15 -24 -22 6 -16 12 -37 14 -47 3 -10 25 -37 50 -59 25 -22 43 -43 40 -47 -4 -8 6 -14 80 -46 22 -10 43 -22 46 -27 4 -6 31 -12 60 -14 30 -2 78 -6 107 -9 48 -5 54 -3 59 15 4 16 8 18 19 9 8 -7 17 -9 21 -6 7 8 68 -28 95 -55 10 -10 24 -18 32 -18 20 0 86 -40 86 -51 0 -5 11 -9 24 -9 25 0 34 23 41 110 2 19 13 62 24 95 21 63 19 73 -17 80 -30 5 -84 44 -77 55 3 5 12 7 19 4 20 -8 66 81 67 130 1 53 -8 156 -14 162 -2 3 -46 5 -96 6 l-92 1 -3 -111 c-3 -72 0 -112 6 -112 23 0 79 -43 70 -52 -18 -18 -86 33 -92 67 -7 45 -4 214 4 223 4 4 104 7 222 7 171 0 214 3 212 13 -2 7 -7 12 -12 12 -7 -1 -60 68 -61 80 0 7 -129 135 -136 135 -12 0 -77 50 -73 56 4 7 -31 23 -46 22 -9 -1 -85 40 -91 49 -3 5 -23 11 -45 14 -71 9 -318 13 -359 5z m-15 -717 c32 -19 47 -43 25 -40 -22 3 -84 40 -89 52 -6 17 25 10 64 -12z m127 -75 c23 -14 31 -25 25 -31 -7 -7 -24 -2 -51 14 -23 14 -38 28 -34 31 11 11 24 8 60 -14z m127 -74 c32 -19 36 -25 23 -31 -19 -7 -90 33 -81 47 8 13 14 11 58 -16z"
       id="path2"
       style="fill:#dc143c;fill-opacity:1" />
    <path
       d="m 1718,3503 c -99.2198,-281.0073 -108.34,-584.2924 -94,-858 -2.4787,-135.9011 55.636,-217.4799 101,-312 266.3648,-215.4385 554.8203,-116.8683 900,-118 70.5293,-312.0589 -321.8645,-849.8357 -125,-992 108.8926,-63.9099 164.81,-116.5331 296.9242,-53.5638 C 2997.4425,1547.6519 3150.27,2124.3429 3172,2485 c 32.2741,210.6034 -306.0326,132.8269 -411,201 118.399,2.2468 309.3696,-88.9666 424,-38 37,21 81.8762,122.381 81.8762,173.381 0.7675,-32.3378 170.6513,-23.0376 173.1238,-37.381 205.0905,-171.7045 298.0581,-1504.4139 548,-1272 470.1841,298.3496 903.311,39.6115 1051,-148 68.9045,-14.9537 80.9315,16.2496 81,62 -50.6547,231.7378 -451.9918,441.2265 -665,459 -327.365,123.2549 -431.1594,593.2447 -670,671 -159.77,211.067 -85.8898,608.4962 -399,479 -33.6276,-21.5845 -222.7038,-56.9956 -213,-94 -240.5988,-49.2251 -676.3005,191.3321 -778,391 -10.1818,28.8608 -95.2704,89.4815 -68,119 8,8 15,3 26,-18 18,-34 52,-67 41,-40 -3,9 2,55 11,102 12,57 14,89 7,98 -8,10 -24,74 -27,112 -6.1767,48.2943 -110.3627,147.3719 -128,146 -288.4222,71.4509 -440.3204,-142.0279 -539,-348 z m 447,187 c 27,0 91,-38 81,-48 -3,-3 -1,-11 5,-19 6,-7 -15,3 -47,22 -33,20 -71,35 -88,35 -70,-1 -155,-83 -156,-152 0,-14 9,-47 19,-72 17,-37 24,-86 14,-86 -14,0 -37,65 -44,127 -10,89 3,128 55,168 38,29 95,45 118,34 9,-5 29,-9 43,-9 z m 129,-130 c 19,-47 20,-70 5,-70 -12,0 -39,61 -39,90 0,33 17,23 34,-20 z m -229,-300 c 6,-30 -20,-13 -43,29 -17,29 -19,40 -10,49 10,10 17,4 31,-24 10,-20 20,-44 22,-54 z m 59,-80 c 14,-22 23,-40 20,-40 -4,0 0,-7 7,-17 13,-15 12,-15 -9,-2 -29,17 -66,75 -57,89 9,15 10,14 39,-30 z m 88,-114 c 20,-25 24,-37 16,-42 -13,-8 -70,54 -62,68 9,14 18,9 46,-26 z m 166,-162 c 72.3364,-95.1537 246.5682,-124.6552 334,-187 7,-8 20,-16 28,-19 -166.6508,-25.7901 -282.7749,-15.0604 -461,-13 3.2165,89.298 38.75,220.0455 -1,272 -47.3705,87.617 90.127,-51.0964 100,-53 z m 882,-46 c 0,-25 -7,-23 -44,17 -74.0949,88.2418 40.9336,26.0994 44,-17 z"
       id="path4"
       style="fill:#dc143c;fill-opacity:1"
       sodipodi:nodetypes="cccccccccccccccccccccccccccsscccccscccscsscscssscsccccsccsccccccccc" />
    <path
       d="M 92,3723 C 50.726229,3712.1165 29.450344,3696.6261 3.4479874,3665.896 28.101943,3219.8936 -34.788222,2735.3109 6.4938952,2292.9628 10.76424,2245.7189 47.662244,2224.4311 73.135911,2205.896 572.25983,2203.1889 928.29698,2195.5226 1465,2194 c 41.544,10.1483 74.4861,28.8569 80,75 l -1,685 c -1,645 15.2399,666.3121 -1.7601,692.3121 -23.6339,7.5606 -57.9598,62.3952 -115.1036,68.0723 -178.5873,17.7423 -426.2177,5.6625 -665.08632,5.4723 C 523.86526,3719.667 280.60125,3741.3777 92,3723 Z"
       id="path6"
       style="fill:#dc143c;fill-opacity:1"
       sodipodi:nodetypes="ccccccccssc" />
    <path
       d="m 3778.619,2859.8762 c 15.7143,-147.9053 212.6278,-266.5948 364.0191,-270.1238 C 4343.1963,2742.8699 4265.4746,3200.1299 4105,3224 3899.963,3209.1043 3770.8714,3001.1935 3778.619,2859.8762 Z"
       id="path8"
       style="fill:#dc143c;fill-opacity:1"
       sodipodi:nodetypes="cccc" />
    <path
       d="M489 2093 c-58 -28 -63 -41 -64 -198 -1 -156 -2 -151 60 -203 13 -11 13 -17 0 -48 -8 -20 -13 -39 -10 -43 4 -8 -59 -187 -74 -205 -12 -16 -41 -107 -32 -102 10 6 -33 -153 -49 -183 -6 -13 -14 -61 -17 -108 -2 -47 -9 -96 -14 -110 -5 -13 -9 -36 -9 -51 l0 -27 193 0 c191 0 192 1 195 23 2 12 -2 22 -8 22 -14 0 -6 230 10 291 11 41 55 126 92 181 11 16 17 32 13 37 -3 5 0 13 6 17 8 5 9 3 4 -6 -5 -8 -4 -11 3 -6 6 4 9 12 6 19 -6 15 120 142 141 142 8 0 20 7 27 15 11 12 10 12 -7 0 -18 -14 -19 -14 -6 2 7 10 17 16 21 13 8 -5 114 49 140 71 20 17 131 46 162 42 13 -1 52 1 88 6 50 6 76 4 110 -8 25 -9 56 -16 69 -16 34 0 101 -22 96 -31 -5 -7 26 -21 55 -24 21 -2 86 -44 80 -51 -3 -3 11 -14 30 -23 19 -9 48 -35 65 -58 16 -23 35 -42 42 -42 15 -1 53 -54 53 -75 0 -9 9 -25 19 -35 28 -28 51 -76 51 -105 0 -13 7 -32 16 -41 24 -23 43 -274 24 -310 -28 -52 -65 -50 828 -49 458 0 834 3 838 6 3 4 4 28 3 55 -1 26 -3 84 -3 128 l-1 80 -663 -1 c-380 0 -665 3 -668 8 -3 5 -7 20 -9 34 -1 13 -9 32 -17 42 -18 21 -35 65 -43 115 -3 20 -10 37 -14 37 -10 0 -27 70 -30 120 -1 19 -6 37 -12 41 -6 3 -12 39 -15 80 -2 41 -9 86 -15 101 -10 24 -8 30 16 51 34 29 43 85 39 241 -3 102 -6 120 -22 122 -4 0 -20 6 -37 14 -43 18 -1718 21 -1756 3z"
       id="path10"
       style="fill:#dc143c;fill-opacity:1" />
    <path
       d="M1224 1589 c-47 -11 -195 -87 -252 -131 -66 -51 -133 -140 -184 -243 -32 -66 -40 -93 -43 -155 -3 -41 -7 -97 -10 -123 -3 -27 -2 -54 3 -60 9 -12 33 -100 31 -114 -3 -18 2 -32 15 -45 15 -16 49 -78 51 -93 2 -21 17 -45 26 -40 4 3 26 -19 49 -50 22 -30 44 -54 48 -53 4 2 25 -10 47 -25 22 -15 35 -27 30 -27 -6 -1 1 -7 15 -14 14 -8 28 -12 32 -10 4 3 34 -8 67 -25 59 -29 62 -29 208 -27 106 1 160 6 190 18 24 8 40 12 37 7 -6 -11 31 3 83 30 21 11 84 66 140 123 98 100 144 167 149 218 1 14 10 57 20 95 27 112 18 256 -22 339 -13 28 -24 58 -24 67 0 10 -13 32 -30 50 -16 18 -37 48 -46 67 -8 18 -26 37 -39 42 -13 5 -38 27 -56 49 -18 23 -39 41 -46 41 -20 0 -90 37 -95 50 -2 6 -18 12 -36 15 -48 6 -95 16 -107 24 -13 8 -214 8 -251 0z m181 -389 c-3 -5 4 -11 17 -12 13 0 28 -2 34 -2 17 -2 83 -50 78 -57 -2 -4 7 -18 21 -31 35 -35 43 -64 39 -141 -4 -75 -17 -107 -66 -156 -33 -34 -92 -66 -106 -57 -4 2 -27 1 -51 -4 -45 -8 -136 13 -126 30 3 4 -10 15 -28 24 -34 16 -53 45 -80 127 -15 47 -11 104 11 144 20 36 118 126 148 135 41 12 117 12 109 0z"
       id="path12"
       style="fill:#dc143c;fill-opacity:1" />
    <path
       d="m 3850,1194 c -80.5765,-471.46708 96.6052,-739.94389 457,-833 298.9727,-36.77261 665.11,88.39338 743,414 64.4451,198.73348 28.7833,544.5659 -184,669 -122.9618,127.8129 -253.2381,137.8567 -391,149 -268.1152,-2.9754 -537.4811,-168.4958 -625,-399 z m 684,-4 c 128.5354,-57.1359 180.1428,-208.62254 125,-320 -16.1392,-51.96521 -89.5495,-118.61262 -145,-129 -430.9314,-0.16005 -344.2548,577.9628 20,449 z"
       id="path14"
       style="fill:#dc143c;fill-opacity:1"
       sodipodi:nodetypes="cccccccccc" />
  </g>
</svg>
