<?xml version="1.0" encoding="UTF-8" standalone="no"?>
<svg
   version="1.0"
   width="512.000000pt"
   height="512.000000pt"
   viewBox="0 0 512.000000 512.000000"
   preserveAspectRatio="xMidYMid meet"
   id="svg2567"
   sodipodi:docname="gift-card.svg"
   inkscape:version="1.2 (dc2aedaf03, 2022-05-15)"
   inkscape:export-filename="gift-card.png"
   inkscape:export-xdpi="96"
   inkscape:export-ydpi="96"
   xmlns:inkscape="http://www.inkscape.org/namespaces/inkscape"
   xmlns:sodipodi="http://sodipodi.sourceforge.net/DTD/sodipodi-0.dtd"
   xmlns="http://www.w3.org/2000/svg"
   xmlns:svg="http://www.w3.org/2000/svg">
  <defs
     id="defs2571" />
  <sodipodi:namedview
     id="namedview2569"
     pagecolor="#ffffff"
     bordercolor="#cccccc"
     borderopacity="1"
     inkscape:showpageshadow="0"
     inkscape:pageopacity="1"
     inkscape:pagecheckerboard="0"
     inkscape:deskcolor="#d1d1d1"
     inkscape:document-units="pt"
     showgrid="false"
     inkscape:zoom="0.76904297"
     inkscape:cx="349.13524"
     inkscape:cy="265.26476"
     inkscape:window-width="1360"
     inkscape:window-height="705"
     inkscape:window-x="-8"
     inkscape:window-y="-8"
     inkscape:window-maximized="1"
     inkscape:current-layer="g2565" />
  <g
     transform="translate(0.000000,512.000000) scale(0.100000,-0.100000)"
     fill="#000000"
     stroke="none"
     id="g2565">
    <path
       d="M 276,4179 C 226.36896,4182.0555 77.553002,4145.3522 94.295238,4032.4381 84.719531,3566.283 90,3264.9578 90,2730 l 1074,-2 c 591,-2 1072,0 1069,4 137.2251,306.1635 414.2633,403.1562 646,324 -71.018,330.0933 99.8922,619.449 366,702 2.399,140.6584 3.6666,281.3289 5,422 -596.1603,0.4439 -1147.5461,1.7115 -1632,3 -740,1 -1344,-1 -1342,-4 z"
       id="path2549"
       style="fill:#dc143c;fill-opacity:1"
       sodipodi:nodetypes="cccccccccc" />
    <path
       d="m 3653,4182 -83,-3 -1,-62 c -8,-314 -19.6286,-359.1238 9.3714,-368.1238 C 3882.5347,3700.7428 3996.354,3382.4664 3935,3153 c -18,-79 -18,-80 1,-87 245.6646,63.8665 666.5043,-52.4596 685,-327 144.4679,-13.3723 255.2251,-9 409,-9 v 650 c 0,395 -4,650 -9,650 -42.7284,68.2681 -92.4568,125.32 -176,145 -32,6 -1055,12 -1192,7 z"
       id="path2551"
       style="fill:#dc143c;fill-opacity:1"
       sodipodi:nodetypes="ccccccccsccc" />
    <path
       d="m 3700,2561 c 212.4541,-132.2515 574.6208,-352.4245 616,-15 8,75 -6,122 -50,169 -145.4958,135.4309 -448.3693,-60.4022 -566,-154 z"
       id="path2555"
       style="fill:#dc143c;fill-opacity:1"
       sodipodi:nodetypes="cccc" />
    <path
       d="m 3414.0308,2815.9779 c 129.3946,214.2061 344.698,579.2887 6.7496,616.1457 -75.1004,6.9949 -121.9087,-7.6332 -168.3153,-52.2587 -133.4704,-147.2963 66.401,-447.5202 161.5657,-563.887 z"
       id="path2555-8"
       style="fill:#dc143c;fill-opacity:1"
       sodipodi:nodetypes="cccc" />
    <path
       d="m 163,2412 -73,-3 V 1719 C 90,1117 81.028571,1022.1238 94.028571,1008.1238 100.46577,928.09455 187.80413,888.10929 254.78095,874.90476 281.78095,866.90476 754,870 1773,870 h 1477 v 243 c 0,133 -4,248 -9,256 -417.7756,145.5696 -385.7485,407.4171 -318,674 -354.2579,-207.7021 -767.5471,178.5989 -736,367 -92,3 -1972,4 -2024,2 z"
       id="path2559"
       style="fill:#dc143c;fill-opacity:1"
       sodipodi:nodetypes="ccsccscscccc" />
    <path
       d="m 4640,2412 c -19,-3 -32,-17 -52,-58 -77.6384,-247.1885 -368.3685,-348.2597 -620,-299 -45,15 -50,12 -32,-23 143.5361,-317.1743 -82.0494,-584.3384 -371,-682 l 1,-213 c 1.2785,-89.0094 0.8231,-178.04707 4,-267 h 635 c 701,0 694.5048,-4.4381 763.5048,60.5619 30.0585,18.81389 33.4472,52.14138 61.4952,109.4381 v 685 685 c -132.9705,-2.8895 -276.5205,8.6202 -390,2 z"
       id="path2561"
       style="fill:#dc143c;fill-opacity:1"
       sodipodi:nodetypes="cccccccsccccc" />
    <path
       d="m 3190.8347,2532.8873 c -219.0943,129.6909 -592.5155,345.4992 -630.7239,7.6022 -7.2668,-75.0907 7.6413,-121.9192 53.2575,-168.3875 150.5948,-133.674 458.2098,65.7818 577.4664,160.7853 z"
       id="path2555-2"
       style="fill:#dc143c;fill-opacity:1;stroke-width:1"
       sodipodi:nodetypes="cccc" />
    <path
       d="m 3413.1916,2276.4284 c -128.811,-219.6128 -343.1196,-593.8966 -5.0721,-630.7493 75.1193,-6.9656 121.8876,8.1303 168.1725,53.9325 133.0689,151.1298 -67.6192,457.9422 -163.1004,576.8168 z"
       id="path2555-2-4"
       style="fill:#dc143c;fill-opacity:1;stroke-width:1"
       sodipodi:nodetypes="cccc" />
  </g>
</svg>
