<?xml version="1.0" encoding="UTF-8" standalone="no"?>
<!-- Created with Inkscape (http://www.inkscape.org/) -->

<svg
   width="93.177094mm"
   height="37.248287mm"
   viewBox="0 0 93.177094 37.248288"
   version="1.1"
   id="svg1"
   inkscape:export-filename="rainbow_logovermelho.png"
   inkscape:export-xdpi="96"
   inkscape:export-ydpi="96"
   inkscape:version="1.3.2 (091e20e, 2023-11-25, custom)"
   xmlns:inkscape="http://www.inkscape.org/namespaces/inkscape"
   xmlns:sodipodi="http://sodipodi.sourceforge.net/DTD/sodipodi-0.dtd"
   xmlns="http://www.w3.org/2000/svg"
   xmlns:svg="http://www.w3.org/2000/svg">
  <sodipodi:namedview
     id="namedview1"
     pagecolor="#ffffff"
     bordercolor="#000000"
     borderopacity="0.25"
     inkscape:showpageshadow="2"
     inkscape:pageopacity="0.0"
     inkscape:pagecheckerboard="0"
     inkscape:deskcolor="#d1d1d1"
     inkscape:document-units="mm"
     inkscape:zoom="0.94363241"
     inkscape:cx="10.597347"
     inkscape:cy="75.77103"
     inkscape:window-width="1680"
     inkscape:window-height="987"
     inkscape:window-x="-8"
     inkscape:window-y="-8"
     inkscape:window-maximized="1"
     inkscape:current-layer="layer1" />
  <defs
     id="defs1">
    <rect
       x="160.35995"
       y="436.11914"
       width="386.66232"
       height="151.36781"
       id="rect1" />
  </defs>
  <g
     inkscape:label="Camada 1"
     inkscape:groupmode="layer"
     id="layer1"
     transform="translate(-52.921511,-117.14862)">
    <g
       id="g1"
       transform="matrix(1.522182,0,0,1.522182,-27.634662,-61.172904)">
      <text
         xml:space="preserve"
         transform="scale(0.26458333)"
         id="text1"
         style="font-size:37.3333px;font-family:'Copperplate Gothic Bold';-inkscape-font-specification:'Copperplate Gothic Bold, ';text-align:center;white-space:pre;shape-inside:url(#rect1);fill:#ff0000;stroke-width:2.87622"><tspan
           x="273.57331"
           y="477.37738"
           id="tspan3"><tspan
             style="font-family:'Franklin Gothic Demi Cond';-inkscape-font-specification:'Franklin Gothic Demi Cond';fill:#dc143c"
             id="tspan2">ENCHANTÉ 
</tspan></tspan><tspan
           x="274.98607"
           y="531.26865"
           id="tspan5"><tspan
             style="font-family:'Franklin Gothic Demi Cond';-inkscape-font-specification:'Franklin Gothic Demi Cond';fill:#dc143c"
             id="tspan4">CUPCAKES</tspan></tspan></text>
      <path
         d="m 56.842099,118.00231 c -0.205541,0.32651 -0.178784,0.49034 0.190334,1.1609 0.395352,0.72417 0.424805,0.96542 0.156087,1.3855 -0.104475,0.16947 -0.182902,0.219 -1.330034,0.89276 -1.19727,0.70737 -1.221501,0.72104 -1.475209,1.01158 -0.883141,0.99314 -1.071877,2.34171 -0.50021,3.5558 l 0.14651,0.312 -0.22822,0.29722 c -0.589186,0.7799 -0.841908,1.66459 -0.757722,2.62753 0.04925,0.53005 0.153903,0.9078 0.389061,1.36979 0.169231,0.34128 0.175162,0.36952 0.103279,0.45746 -0.173118,0.20821 -0.422059,0.78028 -0.523031,1.21092 -0.356899,1.50136 0.381061,3.04261 1.801081,3.75155 0.77378,0.38954 1.744559,0.48368 2.532271,0.2496 0.127051,-0.04 0.240302,-0.0671 0.244952,-0.0593 0.0025,0.003 0.971141,1.18861 2.148162,2.63465 2.26331,2.77492 2.21157,2.71468 2.562768,2.75329 0.157957,0.0214 0.166037,0.0169 5.64503,-3.07562 l 5.487073,-3.09698 0.0641,-0.1467 c 0.03267,-0.0815 0.06611,-0.21623 0.06282,-0.30385 0.0035,-0.11248 -0.369251,-1.08098 -1.238509,-3.26387 -0.685523,-1.70769 -1.245919,-3.11232 -1.248254,-3.11628 -0.0025,-0.003 0.08061,-0.0823 0.181354,-0.17607 0.260865,-0.24194 0.629096,-0.77608 0.793923,-1.1533 0.338178,-0.78559 0.336624,-1.76358 -0.0043,-2.58691 -0.426223,-1.02251 -1.425654,-1.82147 -2.556618,-2.04098 -0.278973,-0.0531 -0.896692,-0.0782 -1.026064,-0.042 -0.09236,0.0259 -0.120815,0.004 -0.218744,-0.16072 -0.265746,-0.44999 -0.746151,-0.92615 -1.289577,-1.27203 -0.719748,-0.46211 -1.918432,-0.69604 -2.687367,-0.53044 l -0.177341,0.037 -0.591883,-0.96583 c -0.649581,-1.05434 -0.804752,-1.23516 -1.422213,-1.69712 -1.320073,-0.9864 -3.199664,-1.15177 -4.710222,-0.40972 -0.36527,0.17457 -0.409074,0.20978 -0.523314,0.39007 z m 2.404522,0.5164 c 0.493136,-0.031 1.283928,0.1595 1.713013,0.41202 0.572308,0.34009 0.742598,0.52818 1.315256,1.45223 l 0.512629,0.83164 -3.803393,2.14669 -3.807438,2.14896 -0.09523,-0.22517 c -0.227374,-0.54004 -0.15292,-1.1978 0.195759,-1.71036 l 0.218274,-0.3232 1.217465,-0.71877 c 0.794175,-0.46923 1.268717,-0.76868 1.352697,-0.8635 0.282588,-0.29633 0.515433,-0.72246 0.606168,-1.11575 0.137885,-0.57778 0.08197,-1.0462 -0.195474,-1.6527 l -0.108627,-0.23868 0.244959,-0.0593 c 0.135737,-0.0346 0.4195,-0.0736 0.633983,-0.0843 z m 5.203597,3.47839 c 0.61659,-0.0954 1.254997,0.0285 1.765327,0.34564 0.269067,0.16392 0.65703,0.52911 0.775291,0.72024 0.03965,0.0672 -0.277026,0.25107 -6.115367,3.5463 l -6.157319,3.47528 -0.05362,-0.0909 c -0.11189,-0.18945 -0.227452,-0.67682 -0.241061,-1.00069 -0.01912,-0.51548 0.166586,-1.1308 0.466698,-1.51596 0.30182,-0.39139 0.227436,-0.34416 4.84068,-2.94267 l 4.425658,-2.48774 z m 4.229245,1.96531 c 0.170539,-0.012 0.4714,0.0234 0.668827,0.075 1.42426,0.36974 2.010336,1.95461 1.164534,3.14774 -0.18443,0.26197 -0.224184,0.29493 -0.660238,0.54106 -0.460284,0.25979 -0.468364,0.26435 -0.925616,0.30138 -0.65031,0.0565 -0.960447,0.14212 -1.38843,0.38367 -0.444142,0.25069 -0.72458,0.51418 -1.074491,1.00643 -0.261439,0.36861 -0.26952,0.37316 -0.729804,0.63296 -0.423948,0.23928 -0.495536,0.26388 -0.794363,0.29574 -0.798784,0.0876 -0.957046,0.12966 -1.394978,0.34525 -0.526766,0.26571 -0.78886,0.48735 -1.124523,0.93993 -0.335658,0.4526 -0.469809,0.58094 -0.813007,0.77465 -0.347226,0.19598 -0.527995,0.24539 -1.099096,0.29931 -0.550282,0.0527 -1.089034,0.22521 -1.455663,0.47952 -0.34304,0.2304 -0.575001,0.46663 -0.90599,0.9271 -0.261432,0.36861 -0.269512,0.37316 -0.729797,0.63296 -0.436053,0.24611 -0.484972,0.26356 -0.799026,0.28783 -0.945719,0.076 -1.843337,-0.45949 -2.157046,-1.28238 -0.208937,-0.54518 -0.179933,-1.16151 0.07867,-1.64429 0.275208,-0.51848 -0.29454,-0.17058 7.123118,-4.34667 l 6.706886,-3.7753 z m -8.450916,10.17472 0.22518,-0.0745 0.168774,0.23102 c 0.25783,0.35445 3.184802,4.61783 3.280376,4.77966 l 0.08625,0.14605 -0.746949,0.42158 c -0.480471,0.2712 -0.756248,0.40585 -0.770248,0.38214 -0.0303,-0.0514 -3.509022,-4.31905 -3.620576,-4.43503 -0.06972,-0.0816 -0.06727,-0.10416 0.03209,-0.19177 0.06566,-0.0528 0.236468,-0.26504 0.384728,-0.46978 0.385017,-0.53308 0.538287,-0.65641 0.96039,-0.78939 z m 8.430159,-4.695 c 0.08838,-0.0236 0.324765,-0.0517 0.526518,-0.0656 0.195383,-0.0155 0.423082,-0.0494 0.506789,-0.0808 0.108549,-0.035 0.158888,-0.0319 0.170701,0.0247 0.01321,0.0399 0.499619,1.26526 1.083941,2.71956 l 1.061097,2.65352 -0.742922,0.41932 -0.742914,0.41932 -0.122618,-0.26237 c -0.06713,-0.14104 -0.66412,-1.32505 -1.331021,-2.62747 -0.662904,-1.30468 -1.231248,-2.43118 -1.261097,-2.50906 -0.04683,-0.11567 -0.03483,-0.15929 0.06935,-0.26544 0.246399,-0.23909 0.448287,-0.35305 0.782216,-0.4257 z m -2.902555,2.12242 c 0.168039,-0.0527 0.454912,-0.17774 0.640639,-0.28258 0.181692,-0.10252 0.335583,-0.17924 0.340383,-0.17111 0.0045,0.008 0.584712,1.15409 1.288438,2.54626 0.706079,1.39611 1.283778,2.53836 1.286108,2.54231 0.0045,0.008 -0.320038,0.19644 -0.719762,0.42204 l -0.72677,0.4102 -1.55951,-2.64061 -1.559503,-2.64062 0.356617,-0.0434 c 0.19476,-0.0258 0.487665,-0.0858 0.65337,-0.14248 z m -0.652418,3.52593 1.550184,2.62483 -0.719156,0.39574 -0.725698,0.39379 -1.380837,-2.00993 c -0.761396,-1.107 -1.494887,-2.16659 -1.625891,-2.36105 l -0.24278,-0.34717 0.355304,-0.20054 c 0.41184,-0.23244 0.741338,-0.51312 0.998905,-0.84272 0.100596,-0.13048 0.193761,-0.24619 0.213946,-0.25758 0.01369,-0.0134 0.722905,1.16031 1.576082,2.60495 z"
         id="path5482"
         style="fill:#dc143c;fill-opacity:1;stroke:#dc143c;stroke-width:0.00460967;stroke-opacity:1" />
    </g>
  </g>
</svg>
