<?xml version="1.0" encoding="UTF-8" standalone="no"?>
<svg
   version="1.0"
   width="565.000000pt"
   height="812.000000pt"
   viewBox="0 0 565.000000 812.000000"
   preserveAspectRatio="xMidYMid meet"
   id="svg844"
   sodipodi:docname="mobile-app.svg"
   inkscape:version="1.2 (dc2aedaf03, 2022-05-15)"
   xmlns:inkscape="http://www.inkscape.org/namespaces/inkscape"
   xmlns:sodipodi="http://sodipodi.sourceforge.net/DTD/sodipodi-0.dtd"
   xmlns="http://www.w3.org/2000/svg"
   xmlns:svg="http://www.w3.org/2000/svg">
  <defs
     id="defs848" />
  <sodipodi:namedview
     id="namedview846"
     pagecolor="#ffffff"
     bordercolor="#cccccc"
     borderopacity="1"
     inkscape:showpageshadow="0"
     inkscape:pageopacity="1"
     inkscape:pagecheckerboard="0"
     inkscape:deskcolor="#d1d1d1"
     inkscape:document-units="pt"
     showgrid="false"
     inkscape:zoom="0.50892857"
     inkscape:cx="660.21053"
     inkscape:cy="542.31579"
     inkscape:window-width="1360"
     inkscape:window-height="705"
     inkscape:window-x="-8"
     inkscape:window-y="-8"
     inkscape:window-maximized="1"
     inkscape:current-layer="g842" />
  <g
     transform="translate(0.000000,812.000000) scale(0.100000,-0.100000)"
     fill="#000000"
     stroke="none"
     id="g842">
    <path
       d="m 1205,7576.7895 c -171,-21 -329.00004,-152 -387.00004,-321 l -23,-65 -3,-3110 c -2,-2276 0,-3128.00002 9,-3178.00002 29,-176 159,-325 328.00004,-377 59,-19 94,-20 538,-20 268,0 472,4 469,9 -3,5 -13,71 -21,148 -23,210 -27,228 -51,229 -11,1 -29,6 -40,12 -16,8 -24,8 -34,-1 -10,-9 -11,-9 -6,1 4,7 1,15 -8,18 -9,3 -14,10 -11,14 5,9 -66,40 -92,40 -28,0 -82,23 -87,37.00002 -3,7 -2,12 2,12 19,-4 72,27 69,40 -2,17 27,25 153,40 46,6 87,17 92,23 4,7 6,67 4,133 -3,66 -5,166 -5,222 -1,92 -3,102 -21,108 -27,9 -27,39 0,32 17,-4 20,0 20,31 v 37 l -48,-52 c -26,-28 -57,-56 -69,-62 -32,-16 -74,-13 -94,5 -17,15 -20,15 -45,-5 -20,-15 -41,-22 -73,-21 -25,0 -62,-1 -81,-2 -32,-3 -35,0 -38,25 -2,16 4,47 13,69 12,31 13,44 4,52 -8,8 -14,6 -23,-7 -107,-174 -126,-191 -200,-181 -42,6 -44,5 -55,-26 -6,-18 -11,-41 -11,-51 0,-11 -7,-19 -16,-19 -13,0 -15,7 -11,35 5,33 5,34 -24,28 -33,-6 -85,12 -93,34 -5,12 -12,9 -39,-13 -70,-59 -139,-67 -158,-17 -13,34 -4,61 34,101 24,25 31,40 29,63 -5,40 19,74 68,99 47,24 83,26 101,4 11,-13 10,-21 -6,-50 -10,-19 -22,-34 -27,-34 -11,0 -10,28 2,35 16,10 12,45 -6,45 -26,0 -84,-31 -99,-54 -24,-33 -18,-56 15,-67 27,-10 41,-28 23,-30 -5,0 -21,-2 -37,-3 -61,-4 -105,-106 -49,-114 48,-7 118,51 200,166 25,34 51,62 59,62 19,0 30,-28 15,-43 -6,-6 -11,-31 -11,-57 0,-25 -7,-57 -14,-73 -8,-15 -11,-27 -7,-27 20,0 59,63 80,128 l 22,72 42,-6 c 23,-4 48,-14 55,-23 18,-21 9,-77 -18,-113 -11,-15 -17,-28 -12,-28 17,0 62,58 109,139 51,88 69,105 79,74 3,-10 10,-26 15,-35 6,-12 2,-32 -11,-63 -21,-50 -26,-85 -11,-85 28,0 41,15 41,45 0,42 36,95 83,120 35,19 37,19 54,2 16,-16 16,-20 3,-43 -8,-15 -33,-36 -55,-49 -48,-26 -61,-65 -22,-65 31,0 120,88 163,160 16,27 34,50 41,50 19,0 26,-19 15,-48 -17,-44 -23,-134 -9,-129 6,2 33,31 59,66 l 48,62 v 324 323 l -107,5 c -148,6 -186,11 -299,41 -125,33 -250,92 -308,147 -46,41 -57,61 -33,58 6,-1 177,-1 380,0 l 367,1 v 178 c 0,116 -4,182 -11,189 -7,7 -21,8 -40,3 -51,-15 -69,-3 -69,46 0,42 1,44 31,44 18,0 28,-4 24,-10 -4,-6 -10,-8 -15,-5 -5,3 -11,1 -15,-5 -3,-6 4,-14 17,-20 l 23,-9 -22,-7 c -31,-9 -29,-24 2,-24 31,0 42,24 24,47 -12,15 -11,16 8,11 12,-3 27,-1 32,6 15,18 13,1138 -2,1133 -7,-2 -15,-17 -18,-33 -5,-22 -7,-18 -7,21 0,28 2,44 5,38 2,-7 11,-13 19,-13 17,0 20,65 4,75 -6,4 -9,19 -8,33 3,24 -1,27 -32,32 -31,4 -35,8 -35,35 0,27 4,31 35,35 l 35,5 7,180 c 4,99 4,222 1,273 -5,88 -6,92 -29,92 -30,0 -51,35 -33,56 6,8 22,14 35,14 23,0 24,3 24,70 0,40 -4,70 -10,70 -15,0 -12,77 3,83 9,4 9,6 -1,6 -10,1 -10,6 2,23 23,32 21,85 -4,98 -12,6 -20,21 -20,36 0,17 7,28 20,31 19,5 20,14 20,171 0,145 -2,166 -17,178 -17,13 -17,13 2,14 19,1 19,1 1,15 -19,14 -16,45 4,45 6,0 10,61 10,174 0,105 4,177 10,181 6,4 1,17 -11,34 -31,43 -23,82 24,104 20,10 37.0002,25 37.0002,32 0,7 6,15 13,18 11,4 12,-3 3,-36 -6,-23 -13,-44 -17,-47 -29.0002,-23 -31.0002,-205 -29.0002,-2919 3,-3015.00002 -1,-2861.00002 62.0002,-2984.00002 56,-111.00001 150,-185.00001 289,-224.00001 60,-17 133,-18 1264,-18 1155,0 1202,1 1255,19 151,53 244,149.00001 291,300.00001 l 22,71 -7,1925.00002 c -13,3352 -16,3754 -26,3764 -6,6 -10,24 -10,40 0,25 -2,28 -11,16 -8,-12 -9,-11 -4,6 3,14 -2,35 -15,55 -11,19 -23,41 -26,49 -11,24 -97,110 -111,110 -7,0 -13,3 -13,8 0,16 -166,82 -208,82 -11,0 -24,5 -27,10 -4,6 -145,10 -391,10 h -384 v 265 c 0,246 -1,268 -22,322 -53,143 -145,235 -293,294 l -60,24 -1225,1 c -674.0002,1 -1248.0002,-1 -1275.0002,-5 z m -53,-630 c -4,-10 1,-12 16,-6 14,4 22,2 22,-5 0,-6 5,-8 10,-5 12,7 12,3 4,-19 -4,-11 -14,-14 -33,-11 -22,5 -21,3 9,-12 30,-16 35,-23 36,-56 1,-38 29,-89 52,-93 7,-1 8,0 2,3 -17,8 -11,23 8,16 14,-5 13,-3 -3,10 -17,14 -18,16 -3,17 24,0 30,-15 17,-43 -8,-17 -17,-23 -27,-20 -11,5 -13,3 -7,-8 7,-11 5,-11 -11,1 -10,8 -22,20 -26,25 -5,7 -8,7 -8,0 0,-5 -4,-4 -9,3 -6,11 -10,10 -15,-4 -4,-10 -4,-15 0,-11 4,3 15,-3 25,-15 20,-23 26,-43 9,-33 -5,3 -10,0 -10,-7 -1,-7 -8,-1 -16,15 -8,15 -17,27 -20,27 -2,0 0,-9 6,-21 6,-11 9,-25 7,-32 -2,-7 -10,0 -17,15 -10,21 -10,33 -1,56 9,22 9,35 -2,60 -7,18 -16,29 -20,26 -3,-3 1,-17 10,-30 13,-20 13,-29 3,-55 -9,-22 -10,-36 -2,-53 13,-29 7,-36 -30,-36 -30,0 -34,10 -18,41 8,14 7,26 -4,47 -10,19 -11,33 -4,47 9,19 9,19 -6,1 -13,-17 -13,-22 0,-47 13,-27 10,-52 -11,-77 -14,-17 -109.00004,73 -101.00004,94 3,9 -1,14 -12,14 -15,0 -15,2 -2,10 23,15 28,12 26,-14 -3,-21 -1,-23 15.00004,-13 21,13 42,57 38,78 -6,29 13,57 44,67 26,9 28,11 7,9 -27,-2 -50,9 -50,23 0,5 7,6 17,3 12,-5 14,-3 8,7 -6,10 -3,12 14,7 14,-3 21,-1 18,6 -2,7 3,17 11,23 19,14 42,-3 34,-25 z m 2736.0002,-38 c 3,-10 -20,-13 -92,-13 -88,0 -108,5 -89,24 13,12 176,2 181,-11 z m -2853.0002,-17 c 25,10 15,-18 -12,-31 -11,-6 -18,-15 -16,-22 5,-14 -36.00004,-28 -48.00004,-16 -6,6 -2,20 11,35 11,15 20,34 20,45 1,17 1,17 14.00004,0 9,-11 20,-15 31,-11 z m 245,0 c 0,-14 5,-28 10,-31 23,-14 7,-22 -22,-12 -51,18 -82,56 -37,44 12,-3 22,0 26,9 8,23 23,16 23,-10 z m 2610.0002,-41 c 0,-12 -17,-15 -95,-15 -78,0 -95,3 -95,15 0,12 17,15 95,15 78,0 95,-3 95,-15 z m -2600.0002,-20 c 27,-15 20,-19 -17,-9 -13,4 -23,10 -23,15 0,12 11,11 40,-6 z m -294.00004,-30 c -23,-17 -36,-19 -36,-6 0,5 8,12 18,14 32.00004,9 37.00004,6 18,-8 z m 300.00004,-1 c 17,-14 17,-15 1,-10 -10,3 -23,6 -28,6 -5,0 -9,5 -9,10 0,14 13,12 36,-6 z m 2592.0002,-6 c -3,-9 -31,-13 -93,-13 -62,0 -90,4 -92,13 -4,9 19,12 92,12 73,0 96,-3 93,-12 z m -979,-272 c 11,-10 21,-38 25,-66 10,-73 54,-115 133,-125 86,-12 1280,-6 1326,6 54,14 76,41 88,107 19,100 4,94 220,91 236,-3 279,-13 355,-82 30,-27 54,-55 54,-63 0,-8 4,-14 8,-14 5,0 16,-24 25,-52 15,-49 16,-288 18,-2883 1,-2692.00002 0,-2832.00002 -17,-2875.00002 -40,-101 -75,-138 -179,-190 -40,-20.00001 -54,-20.00001 -1225,-17.00001 -1233,3 -1254,4 -1319,45.00001 -78,50 -134,148 -145,251 -9,93 -7,5609.00002 3,5656.00002 11,57 33,94 88,147 60,58 98,73 193,77 41,1 77,5 80,8 3,3 60,3 128,0 95,-4 127,-9 141,-21 z m -690,-36 c -13,-16 -25,-28 -27,-25 -5,5 37,55 45,55 2,0 -6,-13 -18,-30 z m -979.0002,-74 c 0,-8 -12,-16 -27,-18 -35,-4 -43,-28 -9,-28 16,0 26,-6 26,-15 0,-9 -9,-15 -25,-15 -16,0 -25,-6 -25,-15 0,-10 10,-15 30,-15 20,0 30,-5 30,-15 0,-11 -12,-15 -45,-15 h -45 v 75 75 h 45 c 32,0 45,-4 45,-14 z m 576,-8 c 27,-27 30,-38 9,-38 -10,0 -15,-10 -15,-29 0,-16 6,-31 15,-35 23,-9 18,-26 -9,-26 -31,0 -42,16 -49,69 -5,41 5,81 19,81 4,0 17,-10 30,-22 z m 143,-30 22,-52 24,52 c 36,78 55,70 55,-23 0,-60 -3,-75 -15,-75 -11,0 -15,11 -16,38 v 37 l -16,-37 c -19,-48 -48,-51 -58,-8 -4,17 -11,30 -16,30 -5,0 -9,-13 -9,-30 0,-20 -5,-30 -15,-30 -12,0 -15,15 -15,75 0,67 2,75 19,75 13,0 25,-16 40,-52 z m -665,6 c 6,-16 8,-16 24,0 18,15 42,22 42,11 0,-3 -8,-17 -17,-31 -15,-24 -15,-27 1,-55 16,-28 16,-29 -1,-29 -11,0 -24,5 -30,11 -8,8 -13,8 -17,0 -4,-6 -16,-11 -27,-11 -19,0 -20,1 -3,29 16,28 16,31 1,55 -21,32 -21,36 2,36 10,0 22,-7 25,-16 z m 192,-9 c 32,-43 9,-95 -41,-95 -29,0 -34,-4 -37,-27 -2,-17 -9,-28 -18,-28 -12,0 -16,16 -18,74 -2,41 -1,80 2,86 8,21 95,13 112,-10 z m 129,-1 c 22,-24 24,-24 30,-5 11,37 85,40 99,5 9,-25 -1,-29 -29,-14 -29,16 -49,3 -43,-26 3,-15 11,-18 41,-16 38,3 46,-5 25,-26 -22,-22 -76,-15 -94,13 -13,20 -25,25 -55,25 -22,0 -39,-4 -39,-8 0,-17 13,-20 36,-10 29,13 42,4 24,-17 -15,-18 -71,-20 -88,-3 -21,21 -15,75 10,92 32,23 55,20 83,-10 z m -625.00004,-484 c 0,-32 18.00004,-32 25.00004,0 9,39 20,38 32,-2 10,-33 12,-32 27,16 13,38 17,7 5,-33 -13,-45 -30,-49 -40,-10 l -6,24 -11,-27 c -16,-38 -27.00004,-35 -40.00004,11 -15,47 -15,54 -2,46 6,-3 10,-15 10,-25 z m 202.00004,8 c -7,-7 -12,-8 -12,-2 0,14 12,26 19,19 2,-3 -1,-11 -7,-17 z m 372,6 c 13,-5 14,-9 5,-20 -6,-8 -8,-25 -4,-41 5,-23 4,-25 -9,-14 -9,8 -16,29 -16,47 0,37 0,37 24,28 z m 271,-41 c 1,-28 -3,-39 -11,-36 -12,4 -24,69 -15,79 13,13 25,-7 26,-43 z m -677,25 c 16,-16 15,-30 -1,-52 -11,-15 -17,-17 -35,-7 -33,18 -23,71 13,71 6,0 16,-5 23,-12 z m 84,0 c -7,-7 -12,-22 -12,-35 0,-13 -4,-23 -10,-23 -5,0 -10,16 -10,35 0,29 4,35 22,35 17,0 19,-3 10,-12 z m 76,-1 c 24,-29 -8,-74 -43,-61 -15,6 -21,55 -8,67 11,11 40,8 51,-6 z m 119,-27 c 1,-34 1,-34 -5,-5 -9,38 -36,40 -40,3 -4,-37 -22,-36 -22,0 0,36 4,39 38,38 24,-1 27,-5 29,-36 z m 81,28 c 28,-28 -4,-77 -41,-62 -22,8 -28,42 -10,59 18,18 35,19 51,3 z m 118,-84 c -3,-8 -11,-14 -18,-14 -9,0 -9,3 0,12 7,7 13,32 14,58 l 1,45 4,-44 c 3,-24 2,-50 -1,-57 z m 54,36 c 14,0 20,9 23,33 l 4,32 1,-36 c 1,-25 -3,-39 -13,-43 -29,-11 -45,5 -43,43 l 1,36 4,-32 c 3,-24 9,-33 23,-33 z m 96,48 c 5,-8 2,-9 -9,-5 -28,11 -28,-9 0,-22 23,-11 25,-14 11,-27 -15,-15 -48,-10 -48,8 0,6 6,6 14,-1 9,-8 16,-8 20,-2 4,5 -3,12 -14,16 -30,9 -25,45 6,45 7,0 16,-5 20,-12 z m 167,4 c 4,-1 7,-15 7,-31 0,-30 -19,-45 -44,-35 -9,4 -16,-3 -19,-18 -2,-13 -5,2 -6,33 -1,55 -1,56 27,54 15,-1 30,-3 35,-3 z m 97,-28 c 0,-24 -5,-33 -21,-37 -28,-8 -47,1 -54,24 -9,28 12,48 46,46 25,-2 29,-6 29,-33 z m -980,-172 c 50,-10 41,-72 -10,-72 -29,0 -30,1 -30,53 1,42 3,49 13,37 7,-8 19,-16 27,-18 z m 644,1 c 7,3 18,2 25,-2 15,-10 22,-59 10,-67 -5,-3 -9,9 -9,26 0,42 -32,38 -41,-5 -5,-22 -7,-16 -7,25 0,30 2,47 5,37 3,-10 10,-16 17,-14 z m -483,-11 c -15,-5 -14,-49 2,-55 7,-4 6,-6 -4,-6 -19,-1 -29,19 -29,53 0,30 10,39 28,24 9,-8 10,-14 3,-16 z m 440,0 c -15,-5 -14,-49 2,-56 6,-3 3,-5 -8,-3 -14,1 -21,11 -23,30 -5,38 -17,34 -32,-14 -8,-22 -18,-43 -23,-46 -6,-4 -8,0 -4,10 9,23 -15,78 -33,75 -8,-2 -18,-17 -21,-33 -6,-29 -7,-29 -8,8 -1,34 1,37 27,37 20,0 32,-7 40,-22 11,-23 11,-23 17,-3 8,27 45,45 64,31 9,-7 9,-12 2,-14 z m -321,-28 c 0,-28 -25,-42 -49,-27 -22,14 -25,38 -6,57 22,22 55,4 55,-30 z m 154,20 c 16,-42 -43,-73 -64,-34 -8,15 -6,24 10,40 21,21 45,18 54,-6 z m 365,-27 -1,-32 -7,30 c -9,42 -41,47 -41,6 0,-17 -4,-31 -10,-31 -5,0 -10,15 -10,34 0,25 5,36 18,39 31,7 52,-11 51,-46 z m 91,-3 c 0,-34 -5,-46 -21,-55 -17,-9 -25,-8 -38,6 -15,15 -14,16 12,10 17,-5 27,-3 27,4 0,6 -8,11 -18,11 -21,0 -42,18 -42,36 0,23 28,42 54,37 23,-5 26,-10 26,-49 z m 114,30 c 3,-9 1,-24 -5,-35 -15,-28 -53,-21 -57,10 -6,43 47,63 62,25 z m -924,-39 c 9,0 16,11 18,28 5,39 24,34 20,-5 -3,-29 -6,-33 -33,-33 -27,0 -30,3 -32,35 -1,34 -1,34 5,5 4,-17 14,-30 22,-30 z m 235,28 7,-28 10,28 c 5,15 14,27 19,27 12,0 -14,-63 -28,-67 -6,-2 -13,4 -16,14 -2,10 -8,26 -12,36 -4,9 -3,17 3,17 5,0 13,-12 17,-27 z m 405,-8 c 0,-19 -4,-35 -10,-35 -5,0 -10,16 -10,35 0,19 5,35 10,35 6,0 10,-16 10,-35 z m 134,-160 c -4,-8 -2,-15 4,-15 5,0 12,7 16,15 8,23 23,18 20,-7 -1,-13 -3,-35 -3,-50 -1,-38 -21,-35 -21,3 0,39 -23,34 -31,-7 -5,-28 -5,-28 -10,8 -5,38 4,68 21,68 5,0 7,-7 4,-15 z m -444,-40 c 0,-43 -1,-45 -29,-45 -56,0 -67,60 -12,68 11,2 21,8 21,13 0,5 5,9 10,9 6,0 10,-20 10,-45 z m -418,13 c -7,-7 -12,-22 -12,-35 0,-13 -4,-23 -10,-23 -5,0 -10,16 -10,35 0,29 4,35 22,35 17,0 19,-3 10,-12 z m 86,-10 c 3,-13 -3,-18 -22,-18 -14,0 -26,-5 -26,-11 0,-7 10,-9 26,-5 17,5 23,3 19,-4 -8,-13 -52,-13 -60,1 -4,5 -4,21 -1,35 5,20 12,25 34,22 16,-2 28,-10 30,-20 z m 32,-4 c 0,-8 5,-12 10,-9 6,3 10,-3 10,-14 0,-20 -15,-29 -23,-13 -11,20 -17,63 -7,57 5,-3 10,-13 10,-21 z m 44,4 7,-23 11,25 c 5,14 12,20 14,14 6,-14 -13,-64 -23,-64 -8,0 -33,47 -33,62 0,17 18,7 24,-14 z m 116,-14 c 0,-34 -1,-35 -32,-32 -54,5 -53,68 2,68 28,0 30,-3 30,-36 z m 52,27 c -7,-4 -17,-21 -22,-37 -8,-29 -8,-29 -9,9 -1,32 2,37 22,37 15,0 18,-3 9,-9 z m 118,-26 c 0,-19 -4,-35 -10,-35 -5,0 -10,16 -10,35 0,19 5,35 10,35 6,0 10,-16 10,-35 z m 77,-5 c 1,-34 1,-34 -5,-5 -4,17 -14,30 -22,30 -8,0 -18,-13 -21,-30 -6,-29 -7,-28 -8,8 -1,36 1,38 27,35 23,-3 27,-8 29,-38 z m 93,-9 c 0,-42 -3,-51 -21,-56 -14,-5 -27,-1 -38,10 -15,16 -15,17 5,6 17,-8 25,-7 34,3 9,12 6,15 -17,18 -50,6 -44,68 7,68 29,0 30,-1 30,-49 z m 116,38 c 4,-8 -1,-9 -16,-4 -25,8 -42,-9 -33,-32 4,-10 14,-12 32,-8 20,5 23,4 15,-5 -17,-17 -58,-8 -62,13 -7,35 46,65 64,36 z m 79,-24 c 0,-24 -5,-31 -24,-33 -31,-5 -45,11 -37,43 5,21 12,26 34,23 23,-2 27,-8 27,-33 z m 163,23 c 19,-19 14,-28 -13,-28 -14,0 -25,-5 -25,-11 0,-6 9,-9 20,-6 11,3 20,1 20,-5 0,-18 -55,-4 -58,15 -8,42 27,64 56,35 z m -662,-185 c -2,-16 -4,-38 -5,-50 -2,-36 -18,-27 -23,12 -2,22 1,40 11,50 20,20 20,20 17,-12 z m -41,9 c -5,-4 -10,-13 -11,-19 -1,-7 -2,-28 -4,-45 l -2,-33 -8,40 c -9,47 -4,65 19,65 9,0 12,-3 6,-8 z m 502,-59 c -2,-16 -4,-5 -4,22 0,28 2,40 4,28 2,-13 2,-35 0,-50 z m 208,9 c 1,-33 -2,-39 -12,-30 -7,6 -13,26 -13,45 0,50 24,36 25,-15 z m -767,26 c 17,-17 15,-43 -4,-59 -31,-26 -70,25 -44,56 15,18 32,19 48,3 z m 172,-3 c 15,-19 -1,-65 -23,-65 -32,0 -48,45 -25,68 16,16 33,15 48,-3 z m 60,4 c 0,-5 -4,-9 -10,-9 -5,0 -10,-11 -10,-25 0,-14 -4,-25 -10,-25 -5,0 -10,15 -10,33 0,26 4,33 20,34 11,1 20,-2 20,-8 z m 120,-24 c 0,-27 -5,-34 -26,-39 -29,-8 -54,8 -54,33 0,25 19,40 51,39 26,-1 29,-5 29,-33 z m 98,15 c 4,-13 3,-13 -10,-2 -10,8 -19,9 -22,3 -4,-5 3,-12 14,-16 11,-3 20,-13 20,-21 0,-20 -29,-29 -43,-14 -10,10 -8,12 5,7 10,-3 20,-2 23,3 3,5 -4,11 -15,15 -31,10 -24,49 9,43 8,-2 17,-10 19,-18 z m 80,3 c 12,-23 -2,-63 -22,-63 -16,0 -46,26 -46,40 0,14 30,40 45,40 8,0 18,-8 23,-17 z m 112,2 c 11,-13 14,-13 27,1 18,18 45,15 51,-6 3,-12 2,-12 -8,-3 -16,15 -40,5 -40,-17 0,-22 24,-32 40,-17 10,9 11,9 8,-3 -7,-22 -33,-24 -52,-4 -16,15 -18,15 -31,-2 -11,-15 -18,-17 -32,-8 -23,14 -28,41 -13,59 16,19 34,19 50,0 z m -160,-223 c 0,-49 0,-49 -32,-48 -30,1 -33,4 -33,31 0,25 4,30 28,33 15,2 27,9 27,18 0,8 2,14 5,14 3,0 5,-22 5,-48 z m 223,16 c 17,-2 22,-10 24,-38 1,-34 1,-34 -5,-5 -4,17 -15,31 -25,33 -13,3 -17,-3 -17,-28 0,-19 -4,-29 -10,-25 -6,4 -10,23 -9,43 3,42 12,65 17,40 2,-9 13,-18 25,-20 z m -748,-26 c 0,-47 -17,-51 -26,-6 -6,35 -1,56 14,51 7,-2 12,-22 12,-45 z m 683,11 c -9,-11 -9,-19 0,-34 10,-15 9,-19 -2,-19 -8,0 -16,14 -19,38 -5,45 0,57 19,41 11,-9 12,-15 2,-26 z m -883,-3 c 8,-25 -10,-50 -36.00004,-50 -11,0 -19,-7 -19,-15 0,-8 -4,-15 -10,-15 -5,0 -10,23 -10,50 v 50 h 34 c 26.00004,0 36.00004,-5 41.00004,-20 z m 85,-16 c 0,-34 -1,-35 -32,-32 -54,5 -53,68 2,68 28,0 30,-3 30,-36 z m 70,27 c 0,-5 -10,-7 -22,-4 l -23,5 24,-20 c 13,-11 21,-24 17,-31 -8,-13 -46,-15 -46,-2 0,5 9,7 20,4 11,-3 20,-1 20,5 0,5 -9,12 -20,15 -29,8 -26,37 5,37 14,0 25,-4 25,-9 z m 92,-3 c -7,-7 -12,-22 -12,-35 0,-13 -4,-23 -10,-23 -5,0 -10,16 -10,35 0,29 4,35 22,35 17,0 19,-3 10,-12 z m 38,-23 c 0,-19 -4,-35 -10,-35 -5,0 -10,16 -10,35 0,19 5,35 10,35 6,0 10,-16 10,-35 z m 77,24 c 8,-8 13,-8 17,0 9,14 43,14 52,0 4,-8 -1,-9 -17,-4 l -24,6 24,-19 c 13,-11 21,-24 17,-31 -9,-13 -46,-15 -46,-1 0,5 7,7 15,4 22,-9 18,9 -5,24 -18,11 -21,9 -30,-13 -17,-45 -80,-21 -65,25 7,22 44,27 62,9 z m 193,-24 c 0,-32 -2,-35 -30,-35 -34,0 -53,25 -39,52 6,11 21,18 39,18 28,0 30,-3 30,-35 z m 79,-2 c -1,-37 -2,-37 -8,-8 -3,17 -13,30 -21,30 -8,0 -18,-13 -21,-30 -6,-29 -7,-29 -8,8 -1,35 1,37 29,37 28,0 30,-2 29,-37 z m 206,2 c 0,-25 -4,-30 -24,-30 -28,0 -47,25 -38,49 5,12 16,16 34,14 24,-3 28,-8 28,-33 z m -746,-173 c -14,-5 -11,-50 4,-56 6,-3 3,-5 -8,-3 -21,2 -32,43 -21,73 5,12 8,13 20,2 8,-7 10,-14 5,-16 z m 41,18 c 0,-5 9,-10 19,-10 10,0 22,-7 25,-16 9,-24 7,-54 -4,-54 -5,0 -10,14 -10,31 0,38 -24,35 -28,-4 -5,-44 -22,-30 -22,18 0,25 5,45 10,45 6,0 10,-4 10,-10 z m 208,-21 c -6,-4 -8,-19 -6,-33 3,-17 1,-25 -6,-23 -6,2 -13,18 -17,35 -7,36 7,57 26,39 8,-8 9,-14 3,-18 z m 201,-3 c -13,-14 -11,-43 4,-49 7,-4 6,-6 -4,-6 -11,-1 -18,10 -22,32 -6,43 1,60 18,44 8,-7 10,-16 4,-21 z m 184,10 c 52,-13 27,-79 -26,-69 -19,4 -22,10 -18,50 2,25 6,41 10,36 3,-6 18,-13 34,-17 z m 197,-21 c 0,-45 0,-45 -34,-45 -26,0 -36,5 -41,20 -8,25 10,50 36,50 11,0 19,5 19,10 0,6 5,10 10,10 6,0 10,-20 10,-45 z m -662,-4 c 5,-32 -23,-54 -49,-40 -11,5 -19,18 -19,27 0,45 62,56 68,13 z m 172,-6 c 0,-33 -2,-35 -34,-35 -26,0 -36,5 -41,20 -9,28 11,50 46,50 26,0 29,-3 29,-35 z m 66,24 c 4,-8 0,-9 -15,-4 -12,3 -21,2 -21,-4 0,-5 9,-13 20,-16 23,-7 25,-18 7,-34 -10,-8 -19,-7 -33,4 -18,13 -18,14 6,9 l 25,-6 -24,20 c -13,11 -21,24 -17,31 9,14 43,14 52,0 z m 122,-2 c 6,-7 9,-23 5,-36 -4,-17 -12,-21 -32,-19 -26,3 -38,26 -27,54 7,18 40,18 54,1 z m 162,-18 c 0,-41 32,-36 41,6 6,29 7,29 8,-7 1,-35 -1,-38 -28,-38 -29,0 -41,14 -41,51 0,10 5,19 10,19 6,0 10,-14 10,-31 z m 206,20 c 4,-8 0,-9 -15,-4 -12,3 -21,2 -21,-4 0,-5 9,-13 21,-16 11,-4 18,-12 16,-18 -5,-16 -37,-21 -50,-8 -7,7 -3,8 12,4 12,-3 21,-1 21,6 0,6 -6,11 -14,11 -18,0 -29,16 -21,30 8,13 42,13 51,-1 z m -307,-199 c 9,0 22,-5 29,-12 15,-15 16,-58 2,-58 -5,0 -10,12 -10,26 0,19 -4,25 -17,22 -11,-2 -18,-12 -17,-26 0,-12 -3,-22 -8,-22 -4,0 -8,21 -7,48 0,26 3,41 6,35 2,-7 12,-13 22,-13 z m -512,-21 c -9,-15 -9,-24 1,-40 11,-17 11,-20 1,-17 -14,5 -31,66 -23,80 3,4 11,5 19,2 11,-5 12,-10 2,-25 z m -51,9 c 5,-8 2,-9 -9,-5 -24,9 -21,-10 3,-23 11,-6 20,-15 20,-19 0,-15 -31,-22 -48,-10 -14,9 -14,10 6,6 28,-6 28,0 0,22 -12,10 -18,23 -14,29 9,15 33,15 42,0 z m 132,0 c 28,-28 1,-75 -38,-63 -33,11 -21,75 15,75 6,0 16,-5 23,-12 z m 55,-5 c -7,-3 -13,-16 -13,-29 0,-13 -4,-24 -10,-24 -18,0 -11,58 8,62 20,5 32,-3 15,-9 z m 77,2 c 15,-19 -1,-65 -23,-65 -32,0 -48,45 -25,68 16,16 33,15 48,-3 z m 70,-20 c 0,-19 -4,-35 -8,-35 -4,0 -6,16 -4,35 2,19 6,35 8,35 2,0 4,-16 4,-35 z m 68,15 c 4,-13 3,-13 -10,-2 -10,8 -19,9 -22,3 -4,-5 3,-12 14,-16 11,-3 20,-13 20,-21 0,-20 -29,-29 -43,-14 -10,10 -8,12 5,7 10,-3 20,-2 23,3 3,5 -4,11 -15,15 -31,10 -24,49 9,43 8,-2 17,-10 19,-18 z m 110,0 c 4,-12 3,-13 -10,-2 -13,10 -18,9 -28,-3 -17,-21 6,-51 26,-34 11,9 14,9 14,0 0,-18 -29,-25 -45,-11 -8,7 -15,20 -15,29 0,37 47,54 58,21 z m 160,8 c 17,-17 15,-43 -4,-59 -31,-26 -70,25 -44,56 15,18 32,19 48,3 z m 66,6 c 9,-3 16,-11 16,-16 0,-6 -6,-6 -14,1 -9,8 -16,8 -20,2 -4,-5 3,-12 14,-16 11,-3 20,-13 20,-21 0,-20 -29,-29 -43,-14 -10,10 -8,12 6,7 24,-9 21,10 -4,23 -16,9 -18,14 -8,26 13,16 12,16 33,8 z m 80,0 c 24,-9 21,-61 -4,-69 -39,-12 -66,35 -38,63 14,14 20,14 42,6 z m 96,-13 c 13,-25 13,-51 0,-51 -5,0 -10,11 -10,25 0,18 -5,25 -19,25 -15,0 -21,-8 -24,-32 -3,-30 -4,-30 -5,7 -2,36 1,41 23,43 15,1 28,-5 35,-17 z m -900,-216 c 0,-25 -4,-45 -10,-45 -5,0 -10,20 -10,45 0,25 5,45 10,45 6,0 10,-20 10,-45 z m 57,33 c 3,6 9,12 14,12 4,0 6,-7 3,-15 -4,-8 -15,-15 -25,-15 -22,0 -27,-45 -6,-53 7,-4 6,-6 -4,-6 -12,-1 -18,10 -22,37 -5,46 0,57 21,40 12,-10 16,-10 19,0 z m 329,-3 c 9,-8 11,-15 5,-15 -15,0 -14,-47 2,-54 6,-3 3,-5 -8,-3 -20,2 -36,47 -27,75 5,16 10,15 28,-3 z m -240,-16 c 4,-8 0,-9 -15,-4 -12,3 -21,2 -21,-4 0,-5 9,-13 21,-16 11,-4 18,-12 16,-18 -5,-17 -37,-21 -51,-7 -8,9 -6,11 12,5 13,-4 22,-2 22,4 0,6 -6,11 -14,11 -18,0 -29,16 -21,30 8,13 42,13 51,-1 z m 111,-29 c 1,-34 1,-34 -5,-5 -9,38 -36,40 -40,3 -5,-41 -22,-34 -22,8 0,34 1,35 33,32 29,-3 32,-6 34,-38 z m 86,18 c 8,-12 7,-21 -2,-32 -19,-22 -48,-20 -61,5 -23,41 38,68 63,27 z m 117,-9 c 0,-41 32,-36 41,6 6,29 7,29 8,-7 1,-35 -1,-38 -28,-38 -29,0 -41,14 -41,51 0,10 5,19 10,19 6,0 10,-14 10,-31 z m 129,-6 c -1,-37 -2,-37 -8,-8 -3,17 -13,30 -21,30 -8,0 -18,-13 -21,-30 -6,-29 -7,-29 -8,8 -1,35 1,37 29,37 28,0 30,-2 29,-37 z m 41,7 c 0,-20 5,-30 15,-30 10,0 15,10 15,30 0,17 5,30 10,30 6,0 10,-16 10,-36 0,-34 -1,-35 -32,-32 -29,3 -33,7 -36,36 -2,18 1,32 7,32 6,0 11,-13 11,-30 z m 116,19 c 4,-8 0,-9 -15,-4 -11,3 -21,2 -21,-3 0,-5 9,-12 21,-15 12,-3 19,-12 17,-19 -6,-18 -38,-23 -52,-8 -8,9 -6,11 12,5 12,-3 22,-2 22,4 0,5 -9,13 -20,16 -20,6 -25,16 -13,28 10,11 41,8 49,-4 z m 33,4 c -5,-28 3,-53 16,-53 10,0 15,10 15,30 0,17 5,30 10,30 6,0 10,-16 10,-36 0,-34 -1,-35 -32,-32 -29,3 -33,7 -36,36 -2,18 1,32 7,32 6,0 10,-3 10,-7 z m -761,-203 c 4,-12 2,-13 -9,-2 -17,16 -29,15 -29,-2 0,-7 9,-16 20,-19 30,-8 27,-47 -4,-47 -14,0 -28,5 -31,10 -4,7 2,9 19,4 33,-8 34,9 1,24 -24,11 -32,31 -18,46 12,11 46,2 51,-14 z m 46,-34 c 1,-46 -20,-47 -26,-2 -5,43 1,61 15,47 5,-5 10,-26 11,-45 z m 176,44 c 0,-5 9,-10 20,-10 23,0 43,-32 34,-54 -4,-10 -18,-16 -40,-16 -34,0 -34,1 -34,45 0,25 5,45 10,45 6,0 10,-4 10,-10 z m 250,-12 c 0,-17 3,-19 12,-10 20,20 33,14 14,-7 -15,-16 -15,-19 -1,-31 9,-7 13,-15 10,-18 -2,-3 -11,1 -20,8 -10,8 -15,9 -15,1 0,-6 -4,-11 -10,-11 -5,0 -10,20 -10,45 0,25 5,45 10,45 6,0 10,-10 10,-22 z m 179,-6 c -14,-5 -11,-50 4,-55 7,-4 6,-6 -4,-6 -11,-1 -18,10 -22,36 -7,43 -1,57 18,40 7,-6 9,-13 4,-15 z m -509,-26 c 0,-28 -4,-34 -24,-38 -31,-6 -56,8 -56,30 0,26 20,42 52,42 25,0 28,-3 28,-34 z m 42,22 c -7,-7 -12,-22 -12,-35 0,-13 -4,-23 -10,-23 -5,0 -10,16 -10,35 0,29 4,35 22,35 17,0 19,-3 10,-12 z m 141,-46 c 13,-3 17,3 17,27 0,17 5,31 10,31 6,0 10,-16 10,-36 0,-34 -1,-35 -32,-32 -30,3 -33,6 -35,38 -1,34 -1,34 5,5 4,-17 15,-31 25,-33 z m 115,38 c 5,-13 3,-13 -12,-1 -15,12 -19,12 -33,-1 -21,-22 -7,-41 26,-34 24,6 25,5 7,-8 -36,-29 -77,19 -44,52 16,16 50,11 56,-8 z m 127,10 c 3,-6 -1,-7 -9,-4 -24,9 -19,-9 6,-25 21,-13 21,-14 4,-27 -10,-7 -24,-10 -32,-7 -23,8 -16,22 9,16 l 22,-5 -24,20 c -13,11 -21,24 -17,31 9,14 33,14 41,1 z m 163,-2 c 30,-30 -3,-77 -40,-57 -18,9 -25,49 -11,62 10,11 38,8 51,-5 z m 120,-8 c 5,-13 3,-13 -12,-1 -12,10 -20,11 -28,3 -17,-17 -1,-45 22,-39 22,6 28,-8 8,-16 -33,-11 -65,42 -41,67 12,11 46,2 51,-14 z m -98,-176 c 0,-8 5,-12 10,-9 18,11 40,-16 39,-49 l -1,-31 -7,30 c -9,43 -41,47 -41,5 0,-18 -4,-29 -10,-25 -5,3 -10,26 -10,51 0,24 5,44 10,44 6,0 10,-7 10,-16 z m 97,-10 c 21,9 43,-12 43,-40 0,-26 -1,-26 -42,-29 -27,-2 -28,-1 -27,49 1,28 3,43 6,33 3,-12 10,-16 20,-13 z m -902,-16 7,-33 9,33 c 11,38 26,42 35,7 7,-28 24,-24 24,6 0,10 5,19 11,19 6,0 8,-7 5,-16 -3,-9 -6,-21 -6,-28 0,-7 -6,-21 -14,-31 -13,-19 -15,-18 -24,15 l -9,35 -15,-35 -16,-35 -9,25 c -20,49 -24,70 -15,70 5,0 13,-15 17,-32 z m 205,28 c 0,-3 -4,-8 -10,-11 -5,-3 -10,-1 -10,4 0,6 5,11 10,11 6,0 10,-2 10,-4 z m -42,-18 c 19,-19 14,-56 -8,-63 -24,-8 -50,10 -50,34 0,19 19,41 35,41 6,0 16,-5 23,-12 z m 85,-5 c -7,-3 -13,-15 -13,-28 0,-13 -4,-27 -10,-30 -6,-4 -10,8 -10,29 0,25 5,36 18,38 20,5 32,-3 15,-9 z m 77,2 c 15,-19 -1,-65 -23,-65 -32,0 -48,45 -25,68 16,16 33,15 48,-3 z m 121,5 c 5,0 9,-13 9,-29 0,-23 -6,-30 -26,-35 -27,-7 -54,7 -54,30 0,20 31,46 47,40 8,-3 19,-6 24,-6 z m 114,0 c 12,-20 15,-59 5,-65 -6,-4 -10,7 -10,25 0,42 -32,38 -41,-5 -6,-28 -7,-27 -8,10 -1,36 2,41 24,43 13,1 27,-3 30,-8 z m 83,-2 c 20,-20 14,-38 -14,-38 -14,0 -23,-4 -19,-10 3,-5 13,-6 23,-3 14,5 15,4 4,-8 -27,-29 -67,26 -42,56 15,18 32,19 48,3 z m 128,-29 c 1,-19 -3,-42 -8,-51 -9,-19 -53,-25 -63,-9 -3,6 7,9 21,8 15,-1 29,4 31,11 3,8 -1,10 -11,6 -20,-8 -46,13 -46,35 0,25 19,40 49,37 22,-3 26,-8 27,-37 z m -86,-5 c 0,-21 -4,-33 -10,-29 -5,3 -10,19 -10,36 0,16 5,29 10,29 6,0 10,-16 10,-36 z m -416,-166 c -1,-13 -3,-35 -3,-50 -1,-16 -5,-28 -10,-28 -12,0 -19,66 -8,85 12,22 24,18 21,-7 z m 139,-10 c 17,-2 22,-10 24,-38 1,-34 1,-34 -5,-5 -9,38 -36,40 -40,3 -5,-44 -22,-32 -22,15 0,44 12,73 18,44 2,-9 13,-17 25,-19 z m 237,-24 v -45 l -37,3 c -35,3 -38,6 -38,33 0,25 4,30 28,33 16,2 27,9 27,18 0,8 5,12 10,9 6,-3 10,-26 10,-51 z m 150,0 c 0,-24 -4,-44 -10,-44 -5,0 -10,23 -10,51 0,31 4,48 10,44 6,-3 10,-26 10,-51 z m -689,18 c -15,-5 -14,-35 1,-50 9,-9 8,-12 -5,-12 -12,0 -17,8 -17,31 0,41 -32,36 -41,-6 -6,-29 -7,-29 -8,8 -1,30 2,37 18,37 11,0 23,5 26,10 5,8 12,7 22,-2 10,-8 11,-14 4,-16 z m 243,-26 c 1,-20 -3,-35 -9,-33 -12,4 -23,56 -17,75 8,23 25,-5 26,-42 z m -424,17 c 10,-17 10,-17 20,0 7,10 23,17 40,17 28,0 30,-3 30,-35 0,-32 -2,-35 -30,-35 -17,0 -33,7 -40,18 -10,16 -10,16 -20,0 -6,-10 -20,-18 -30,-18 -11,0 -20,-7 -20,-15 0,-8 -4,-15 -10.00004,-15 -5,0 -10,23 -10,50 0,49 1,50 30.00004,50 17,0 33,-7 40,-17 z m 301,1 c 17,-21 0,-49 -31,-49 -31,0 -48,28 -31,49 8,9 21,16 31,16 10,0 23,-7 31,-16 z m 288,2 c 9,-11 10,-20 1,-35 -13,-25 -45,-27 -59,-4 -21,38 31,72 58,39 z m 211,-22 c 0,-34 -1,-35 -32,-32 -54,5 -53,68 2,68 28,0 30,-3 30,-36 z m 27,-16 c -2,-13 -4,-5 -4,17 -1,22 1,32 4,23 2,-10 2,-28 0,-40 z m 97,30 c 4,12 11,22 16,22 5,0 0,-22 -12,-50 -23,-56 -33,-63 -33,-22 -1,15 -4,38 -8,52 l -8,25 19,-24 20,-24 z m 98,10 c -7,-7 -12,-22 -12,-35 0,-13 -4,-23 -10,-23 -5,0 -10,16 -10,35 0,29 4,35 22,35 17,0 19,-3 10,-12 z m -152,-177 c 0,-5 10,-11 23,-13 18,-2 22,-10 24,-38 1,-34 1,-34 -5,-5 -9,38 -36,40 -40,3 -5,-45 -22,-32 -22,17 0,25 5,45 10,45 6,0 10,-4 10,-9 z m 140,-47 c 0,-24 -5,-33 -21,-37 -42,-11 -68,18 -49,54 8,13 20,19 40,17 26,-2 30,-6 30,-34 z m -985,-2525 c 115,-37 155,-61.00002 155,-93.00002 0,-29 -39,-63 -82,-71 -41,-8 -124,-18 -163.00004,-19 l -30,-1 -5,103 c -5,112.00002 -4,123.00002 13,117.00002 7,-2 57.00004,-18 112.00004,-36 z m 671,-4 c 17,-13 16,-14 -16,-3 -43,14 -49,18 -24,18 11,0 29,-7 40,-15 z m -66,-100.00002 c 11,-14 13,-44 7,-153 0,-8 -12,-12 -33,-10 -37,2 -44,19 -40,100 3,67 36,99 66,63 z"
       id="path246" />
    <path
       d="M4623 6403 c26 -2 67 -2 90 0 23 2 2 3 -48 3 -49 0 -68 -1 -42 -3z"
       id="path264" />
    <path
       d="M4582 6354 c9 -8 168 -10 168 -2 0 5 -39 8 -87 8 -47 0 -84 -2 -81 -6z"
       id="path266" />
    <path
       d="M4623 6293 c26 -2 67 -2 90 0 23 2 2 3 -48 3 -49 0 -68 -1 -42 -3z"
       id="path268" />
    <path
       d="M5041 1134 c0 -11 3 -14 6 -6 3 7 2 16 -1 19 -3 4 -6 -2 -5 -13z"
       id="path834" />
  </g>
</svg>
